<mxfile host="app.diagrams.net" agent="Mozilla/5.0 (Windows NT 10.0; Win64; x64) AppleWebKit/537.36 (KHTML, like Gecko) Chrome/131.0.0.0 Safari/537.36" version="25.0.3">
  <diagram name="Page-1" id="y3wddVVnyAf-kgDYmaZ6">
    <mxGraphModel dx="1889" dy="614" grid="1" gridSize="10" guides="1" tooltips="1" connect="1" arrows="1" fold="1" page="1" pageScale="1" pageWidth="827" pageHeight="1169" math="0" shadow="0">
      <root>
        <mxCell id="0" />
        <mxCell id="1" parent="0" />
        <mxCell id="_pMATCZt71jJnjRQlbl_-1" style="edgeStyle=orthogonalEdgeStyle;rounded=0;orthogonalLoop=1;jettySize=auto;html=1;entryX=0;entryY=0.5;entryDx=0;entryDy=0;" edge="1" parent="1" source="_pMATCZt71jJnjRQlbl_-2" target="_pMATCZt71jJnjRQlbl_-5">
          <mxGeometry relative="1" as="geometry" />
        </mxCell>
        <mxCell id="_pMATCZt71jJnjRQlbl_-2" value="Построить дом" style="ellipse;whiteSpace=wrap;html=1;aspect=fixed;" vertex="1" parent="1">
          <mxGeometry x="280" y="260" width="80" height="80" as="geometry" />
        </mxCell>
        <mxCell id="_pMATCZt71jJnjRQlbl_-3" style="edgeStyle=orthogonalEdgeStyle;rounded=0;orthogonalLoop=1;jettySize=auto;html=1;" edge="1" parent="1" source="_pMATCZt71jJnjRQlbl_-4" target="_pMATCZt71jJnjRQlbl_-2">
          <mxGeometry relative="1" as="geometry" />
        </mxCell>
        <mxCell id="_pMATCZt71jJnjRQlbl_-4" value="&lt;div&gt;Строительный&lt;/div&gt;&lt;div&gt;магазин&lt;/div&gt;" style="rounded=0;whiteSpace=wrap;html=1;" vertex="1" parent="1">
          <mxGeometry x="30" y="270" width="120" height="60" as="geometry" />
        </mxCell>
        <mxCell id="_pMATCZt71jJnjRQlbl_-5" value="Заказчик" style="rounded=0;whiteSpace=wrap;html=1;" vertex="1" parent="1">
          <mxGeometry x="440" y="270" width="120" height="60" as="geometry" />
        </mxCell>
        <mxCell id="_pMATCZt71jJnjRQlbl_-6" style="edgeStyle=orthogonalEdgeStyle;rounded=0;orthogonalLoop=1;jettySize=auto;html=1;entryX=0.5;entryY=0;entryDx=0;entryDy=0;" edge="1" parent="1" source="_pMATCZt71jJnjRQlbl_-8" target="_pMATCZt71jJnjRQlbl_-2">
          <mxGeometry relative="1" as="geometry" />
        </mxCell>
        <mxCell id="_pMATCZt71jJnjRQlbl_-7" value="Проект дома" style="edgeLabel;html=1;align=center;verticalAlign=middle;resizable=0;points=[];" vertex="1" connectable="0" parent="_pMATCZt71jJnjRQlbl_-6">
          <mxGeometry x="0.1365" y="2" relative="1" as="geometry">
            <mxPoint y="-47" as="offset" />
          </mxGeometry>
        </mxCell>
        <mxCell id="_pMATCZt71jJnjRQlbl_-8" value="Архитектор" style="rounded=0;whiteSpace=wrap;html=1;" vertex="1" parent="1">
          <mxGeometry x="380" y="120" width="120" height="60" as="geometry" />
        </mxCell>
        <mxCell id="_pMATCZt71jJnjRQlbl_-9" value="&lt;div&gt;Список&lt;/div&gt;&lt;div&gt;материалов&lt;/div&gt;" style="text;html=1;align=center;verticalAlign=middle;resizable=0;points=[];autosize=1;strokeColor=none;fillColor=none;" vertex="1" parent="1">
          <mxGeometry x="175" y="260" width="90" height="40" as="geometry" />
        </mxCell>
        <mxCell id="_pMATCZt71jJnjRQlbl_-10" value="Акт&#xa;приёмки" style="text;whiteSpace=wrap;" vertex="1" parent="1">
          <mxGeometry x="380" y="260" width="80" height="50" as="geometry" />
        </mxCell>
        <mxCell id="_pMATCZt71jJnjRQlbl_-11" value="&lt;div&gt;Согласование&lt;/div&gt;&lt;div&gt;проекта&lt;/div&gt;" style="ellipse;whiteSpace=wrap;html=1;aspect=fixed;" vertex="1" parent="1">
          <mxGeometry x="90" y="540" width="80" height="80" as="geometry" />
        </mxCell>
        <mxCell id="_pMATCZt71jJnjRQlbl_-12" style="edgeStyle=orthogonalEdgeStyle;rounded=0;orthogonalLoop=1;jettySize=auto;html=1;entryX=0;entryY=0.5;entryDx=0;entryDy=0;" edge="1" parent="1" source="_pMATCZt71jJnjRQlbl_-15" target="_pMATCZt71jJnjRQlbl_-17">
          <mxGeometry relative="1" as="geometry" />
        </mxCell>
        <mxCell id="_pMATCZt71jJnjRQlbl_-13" style="edgeStyle=orthogonalEdgeStyle;rounded=0;orthogonalLoop=1;jettySize=auto;html=1;" edge="1" parent="1" source="_pMATCZt71jJnjRQlbl_-15" target="_pMATCZt71jJnjRQlbl_-29">
          <mxGeometry relative="1" as="geometry">
            <mxPoint x="430" y="550" as="targetPoint" />
            <Array as="points">
              <mxPoint x="300" y="557" />
            </Array>
          </mxGeometry>
        </mxCell>
        <mxCell id="_pMATCZt71jJnjRQlbl_-14" style="edgeStyle=orthogonalEdgeStyle;rounded=0;orthogonalLoop=1;jettySize=auto;html=1;exitX=1;exitY=0.5;exitDx=0;exitDy=0;" edge="1" parent="1" source="_pMATCZt71jJnjRQlbl_-15" target="_pMATCZt71jJnjRQlbl_-29">
          <mxGeometry relative="1" as="geometry">
            <Array as="points">
              <mxPoint x="452" y="660" />
            </Array>
          </mxGeometry>
        </mxCell>
        <mxCell id="_pMATCZt71jJnjRQlbl_-15" value="&lt;div&gt;Выполнение&lt;/div&gt;&lt;div&gt;строительных работ&lt;/div&gt;" style="ellipse;whiteSpace=wrap;html=1;aspect=fixed;" vertex="1" parent="1">
          <mxGeometry x="260" y="620" width="80" height="80" as="geometry" />
        </mxCell>
        <mxCell id="_pMATCZt71jJnjRQlbl_-16" style="edgeStyle=orthogonalEdgeStyle;rounded=0;orthogonalLoop=1;jettySize=auto;html=1;" edge="1" parent="1" source="_pMATCZt71jJnjRQlbl_-17">
          <mxGeometry relative="1" as="geometry">
            <mxPoint x="700" y="740" as="targetPoint" />
          </mxGeometry>
        </mxCell>
        <mxCell id="_pMATCZt71jJnjRQlbl_-17" value="Сдача работ" style="ellipse;whiteSpace=wrap;html=1;aspect=fixed;" vertex="1" parent="1">
          <mxGeometry x="443" y="700" width="80" height="80" as="geometry" />
        </mxCell>
        <mxCell id="_pMATCZt71jJnjRQlbl_-18" style="edgeStyle=orthogonalEdgeStyle;rounded=0;orthogonalLoop=1;jettySize=auto;html=1;entryX=-0.007;entryY=0.41;entryDx=0;entryDy=0;entryPerimeter=0;" edge="1" parent="1" source="_pMATCZt71jJnjRQlbl_-11" target="_pMATCZt71jJnjRQlbl_-15">
          <mxGeometry relative="1" as="geometry" />
        </mxCell>
        <mxCell id="_pMATCZt71jJnjRQlbl_-19" value="" style="endArrow=classic;html=1;rounded=0;entryX=0;entryY=1;entryDx=0;entryDy=0;" edge="1" parent="1" target="_pMATCZt71jJnjRQlbl_-15">
          <mxGeometry width="50" height="50" relative="1" as="geometry">
            <mxPoint x="-1.8823601217830883" y="688" as="sourcePoint" />
            <mxPoint x="350" y="620" as="targetPoint" />
          </mxGeometry>
        </mxCell>
        <mxCell id="_pMATCZt71jJnjRQlbl_-20" value="&lt;div&gt;Список&lt;/div&gt;&lt;div&gt;материалов&lt;/div&gt;" style="text;html=1;align=center;verticalAlign=middle;resizable=0;points=[];autosize=1;strokeColor=none;fillColor=none;" vertex="1" parent="1">
          <mxGeometry x="70" y="690" width="90" height="40" as="geometry" />
        </mxCell>
        <mxCell id="_pMATCZt71jJnjRQlbl_-21" value="Акт&#xa;приёмки" style="text;whiteSpace=wrap;" vertex="1" parent="1">
          <mxGeometry x="580" y="700" width="80" height="50" as="geometry" />
        </mxCell>
        <mxCell id="_pMATCZt71jJnjRQlbl_-22" value="&lt;div&gt;Утверждённый&lt;/div&gt;&lt;div&gt;проект&lt;/div&gt;" style="text;html=1;align=center;verticalAlign=middle;resizable=0;points=[];autosize=1;strokeColor=none;fillColor=none;" vertex="1" parent="1">
          <mxGeometry x="190" y="560" width="110" height="40" as="geometry" />
        </mxCell>
        <mxCell id="_pMATCZt71jJnjRQlbl_-23" value="Заказчик" style="rounded=0;whiteSpace=wrap;html=1;" vertex="1" parent="1">
          <mxGeometry x="260" y="480" width="80" height="40" as="geometry" />
        </mxCell>
        <mxCell id="_pMATCZt71jJnjRQlbl_-24" value="" style="endArrow=classic;html=1;rounded=0;exitX=0.5;exitY=0;exitDx=0;exitDy=0;entryX=0.5;entryY=1;entryDx=0;entryDy=0;" edge="1" parent="1" source="_pMATCZt71jJnjRQlbl_-15" target="_pMATCZt71jJnjRQlbl_-23">
          <mxGeometry width="50" height="50" relative="1" as="geometry">
            <mxPoint x="290" y="500" as="sourcePoint" />
            <mxPoint x="340" y="450" as="targetPoint" />
          </mxGeometry>
        </mxCell>
        <mxCell id="_pMATCZt71jJnjRQlbl_-25" style="edgeStyle=orthogonalEdgeStyle;rounded=0;orthogonalLoop=1;jettySize=auto;html=1;entryX=0.757;entryY=0.127;entryDx=0;entryDy=0;entryPerimeter=0;" edge="1" parent="1" source="_pMATCZt71jJnjRQlbl_-23" target="_pMATCZt71jJnjRQlbl_-11">
          <mxGeometry relative="1" as="geometry" />
        </mxCell>
        <mxCell id="_pMATCZt71jJnjRQlbl_-26" value="Список требований" style="text;html=1;align=center;verticalAlign=middle;resizable=0;points=[];autosize=1;strokeColor=none;fillColor=none;" vertex="1" parent="1">
          <mxGeometry x="135" y="470" width="130" height="30" as="geometry" />
        </mxCell>
        <mxCell id="_pMATCZt71jJnjRQlbl_-27" value="" style="endArrow=classic;html=1;rounded=0;entryX=0.5;entryY=0;entryDx=0;entryDy=0;" edge="1" parent="1" target="_pMATCZt71jJnjRQlbl_-11">
          <mxGeometry width="50" height="50" relative="1" as="geometry">
            <mxPoint x="130" y="430" as="sourcePoint" />
            <mxPoint x="260" y="450" as="targetPoint" />
          </mxGeometry>
        </mxCell>
        <mxCell id="_pMATCZt71jJnjRQlbl_-28" value="&lt;div&gt;Проект&lt;/div&gt;&lt;div&gt;дома&lt;/div&gt;" style="text;html=1;align=center;verticalAlign=middle;resizable=0;points=[];autosize=1;strokeColor=none;fillColor=none;" vertex="1" parent="1">
          <mxGeometry x="120" y="430" width="60" height="40" as="geometry" />
        </mxCell>
        <mxCell id="_pMATCZt71jJnjRQlbl_-29" value="" style="sketch=0;outlineConnect=0;fontColor=#232F3E;gradientColor=none;fillColor=#232F3D;strokeColor=none;dashed=0;verticalLabelPosition=bottom;verticalAlign=top;align=center;html=1;fontSize=12;fontStyle=0;aspect=fixed;pointerEvents=1;shape=mxgraph.aws4.document;" vertex="1" parent="1">
          <mxGeometry x="440" y="540" width="24.12" height="33" as="geometry" />
        </mxCell>
        <mxCell id="_pMATCZt71jJnjRQlbl_-30" value="Документация" style="text;html=1;align=center;verticalAlign=middle;resizable=0;points=[];autosize=1;strokeColor=none;fillColor=none;" vertex="1" parent="1">
          <mxGeometry x="402.06" y="510" width="100" height="30" as="geometry" />
        </mxCell>
        <mxCell id="_pMATCZt71jJnjRQlbl_-31" value="&lt;div&gt;Чеки на&lt;/div&gt;&lt;div&gt;материалы&lt;/div&gt;" style="text;html=1;align=center;verticalAlign=middle;resizable=0;points=[];autosize=1;strokeColor=none;fillColor=none;" vertex="1" parent="1">
          <mxGeometry x="290" y="580" width="90" height="40" as="geometry" />
        </mxCell>
        <mxCell id="_pMATCZt71jJnjRQlbl_-32" value="&lt;div&gt;Акты&lt;/div&gt;&lt;div&gt;выполненных&lt;/div&gt;&lt;div&gt;работ&lt;/div&gt;" style="text;html=1;align=center;verticalAlign=middle;resizable=0;points=[];autosize=1;strokeColor=none;fillColor=none;" vertex="1" parent="1">
          <mxGeometry x="440" y="610" width="100" height="60" as="geometry" />
        </mxCell>
        <mxCell id="_pMATCZt71jJnjRQlbl_-33" value="&lt;div&gt;Список&lt;/div&gt;&lt;div&gt;материалов&lt;/div&gt;" style="text;html=1;align=center;verticalAlign=middle;resizable=0;points=[];autosize=1;strokeColor=none;fillColor=none;" vertex="1" parent="1">
          <mxGeometry x="-88.5" y="1320" width="90" height="40" as="geometry" />
        </mxCell>
        <mxCell id="_pMATCZt71jJnjRQlbl_-34" style="edgeStyle=orthogonalEdgeStyle;rounded=0;orthogonalLoop=1;jettySize=auto;html=1;entryX=0;entryY=0.5;entryDx=0;entryDy=0;" edge="1" parent="1" target="_pMATCZt71jJnjRQlbl_-40">
          <mxGeometry relative="1" as="geometry">
            <mxPoint x="-173.5" y="1158.5" as="sourcePoint" />
            <mxPoint x="126.5" y="1159.5" as="targetPoint" />
            <Array as="points">
              <mxPoint x="-22.5" y="1159" />
              <mxPoint x="-22.5" y="1160" />
            </Array>
          </mxGeometry>
        </mxCell>
        <mxCell id="_pMATCZt71jJnjRQlbl_-35" value="&lt;div&gt;Утверждённый&lt;/div&gt;&lt;div&gt;проект&lt;/div&gt;" style="text;html=1;align=center;verticalAlign=middle;resizable=0;points=[];autosize=1;strokeColor=none;fillColor=none;" vertex="1" parent="1">
          <mxGeometry x="-93.5" y="1160" width="110" height="40" as="geometry" />
        </mxCell>
        <mxCell id="_pMATCZt71jJnjRQlbl_-36" value="&lt;div&gt;Чеки на&lt;/div&gt;&lt;div&gt;материалы&lt;/div&gt;" style="text;html=1;align=center;verticalAlign=middle;resizable=0;points=[];autosize=1;strokeColor=none;fillColor=none;" vertex="1" parent="1">
          <mxGeometry x="446.5" y="950" width="90" height="40" as="geometry" />
        </mxCell>
        <mxCell id="_pMATCZt71jJnjRQlbl_-37" value="&lt;div&gt;Акты&lt;/div&gt;&lt;div&gt;выполненных&lt;/div&gt;&lt;div&gt;работ&lt;/div&gt;" style="text;html=1;align=center;verticalAlign=middle;resizable=0;points=[];autosize=1;strokeColor=none;fillColor=none;" vertex="1" parent="1">
          <mxGeometry x="713.5" y="1250" width="100" height="60" as="geometry" />
        </mxCell>
        <mxCell id="_pMATCZt71jJnjRQlbl_-38" style="edgeStyle=orthogonalEdgeStyle;rounded=0;orthogonalLoop=1;jettySize=auto;html=1;" edge="1" parent="1" source="_pMATCZt71jJnjRQlbl_-40">
          <mxGeometry relative="1" as="geometry">
            <mxPoint x="806.5" y="1240" as="targetPoint" />
            <Array as="points">
              <mxPoint x="696.5" y="1160" />
              <mxPoint x="696.5" y="1240" />
            </Array>
          </mxGeometry>
        </mxCell>
        <mxCell id="_pMATCZt71jJnjRQlbl_-39" style="edgeStyle=orthogonalEdgeStyle;rounded=0;orthogonalLoop=1;jettySize=auto;html=1;" edge="1" parent="1" source="_pMATCZt71jJnjRQlbl_-40">
          <mxGeometry relative="1" as="geometry">
            <mxPoint x="456.5" y="920" as="targetPoint" />
            <Array as="points">
              <mxPoint x="240.5" y="1050" />
              <mxPoint x="457.5" y="1050" />
              <mxPoint x="457.5" y="930" />
              <mxPoint x="456.5" y="930" />
            </Array>
          </mxGeometry>
        </mxCell>
        <mxCell id="_pMATCZt71jJnjRQlbl_-40" value="&lt;div&gt;Заложить&lt;/div&gt;&lt;div&gt;фундамент&lt;/div&gt;" style="ellipse;whiteSpace=wrap;html=1;aspect=fixed;" vertex="1" parent="1">
          <mxGeometry x="200.5" y="1120" width="80" height="80" as="geometry" />
        </mxCell>
        <mxCell id="_pMATCZt71jJnjRQlbl_-41" style="edgeStyle=orthogonalEdgeStyle;rounded=0;orthogonalLoop=1;jettySize=auto;html=1;" edge="1" parent="1" source="_pMATCZt71jJnjRQlbl_-43">
          <mxGeometry relative="1" as="geometry">
            <mxPoint x="806.5" y="1240" as="targetPoint" />
            <Array as="points">
              <mxPoint x="696.5" y="1400" />
              <mxPoint x="696.5" y="1240" />
            </Array>
          </mxGeometry>
        </mxCell>
        <mxCell id="_pMATCZt71jJnjRQlbl_-42" style="edgeStyle=orthogonalEdgeStyle;rounded=0;orthogonalLoop=1;jettySize=auto;html=1;" edge="1" parent="1" source="_pMATCZt71jJnjRQlbl_-43">
          <mxGeometry relative="1" as="geometry">
            <mxPoint x="456.5" y="920" as="targetPoint" />
            <Array as="points">
              <mxPoint x="626.5" y="1050" />
              <mxPoint x="456.5" y="1050" />
            </Array>
          </mxGeometry>
        </mxCell>
        <mxCell id="_pMATCZt71jJnjRQlbl_-43" value="Выполнить отделку" style="ellipse;whiteSpace=wrap;html=1;aspect=fixed;" vertex="1" parent="1">
          <mxGeometry x="586.5" y="1360" width="80" height="80" as="geometry" />
        </mxCell>
        <mxCell id="_pMATCZt71jJnjRQlbl_-44" style="edgeStyle=orthogonalEdgeStyle;rounded=0;orthogonalLoop=1;jettySize=auto;html=1;" edge="1" parent="1" source="_pMATCZt71jJnjRQlbl_-46">
          <mxGeometry relative="1" as="geometry">
            <mxPoint x="806.5" y="1240" as="targetPoint" />
            <Array as="points">
              <mxPoint x="696.5" y="1320" />
              <mxPoint x="696.5" y="1240" />
            </Array>
          </mxGeometry>
        </mxCell>
        <mxCell id="_pMATCZt71jJnjRQlbl_-45" style="edgeStyle=orthogonalEdgeStyle;rounded=0;orthogonalLoop=1;jettySize=auto;html=1;" edge="1" parent="1" source="_pMATCZt71jJnjRQlbl_-46">
          <mxGeometry relative="1" as="geometry">
            <mxPoint x="456.5" y="920" as="targetPoint" />
            <Array as="points">
              <mxPoint x="491.5" y="1050" />
              <mxPoint x="457.5" y="1050" />
              <mxPoint x="457.5" y="930" />
              <mxPoint x="456.5" y="930" />
            </Array>
          </mxGeometry>
        </mxCell>
        <mxCell id="_pMATCZt71jJnjRQlbl_-46" value="Положить крышу" style="ellipse;whiteSpace=wrap;html=1;aspect=fixed;" vertex="1" parent="1">
          <mxGeometry x="451.5" y="1280" width="80" height="80" as="geometry" />
        </mxCell>
        <mxCell id="_pMATCZt71jJnjRQlbl_-47" style="edgeStyle=orthogonalEdgeStyle;rounded=0;orthogonalLoop=1;jettySize=auto;html=1;" edge="1" parent="1" source="_pMATCZt71jJnjRQlbl_-49">
          <mxGeometry relative="1" as="geometry">
            <mxPoint x="806.5" y="1240" as="targetPoint" />
          </mxGeometry>
        </mxCell>
        <mxCell id="_pMATCZt71jJnjRQlbl_-48" style="edgeStyle=orthogonalEdgeStyle;rounded=0;orthogonalLoop=1;jettySize=auto;html=1;" edge="1" parent="1" source="_pMATCZt71jJnjRQlbl_-49">
          <mxGeometry relative="1" as="geometry">
            <mxPoint x="456.5" y="920" as="targetPoint" />
            <Array as="points">
              <mxPoint x="356.5" y="1050" />
              <mxPoint x="456.5" y="1050" />
            </Array>
          </mxGeometry>
        </mxCell>
        <mxCell id="_pMATCZt71jJnjRQlbl_-49" value="Возвести стены" style="ellipse;whiteSpace=wrap;html=1;aspect=fixed;" vertex="1" parent="1">
          <mxGeometry x="316.5" y="1200" width="80" height="80" as="geometry" />
        </mxCell>
        <mxCell id="_pMATCZt71jJnjRQlbl_-50" value="" style="endArrow=classic;html=1;rounded=0;" edge="1" parent="1">
          <mxGeometry width="50" height="50" relative="1" as="geometry">
            <mxPoint x="36.5" y="1160" as="sourcePoint" />
            <mxPoint x="316.5" y="1240" as="targetPoint" />
            <Array as="points">
              <mxPoint x="36.5" y="1240" />
            </Array>
          </mxGeometry>
        </mxCell>
        <mxCell id="_pMATCZt71jJnjRQlbl_-51" value="" style="endArrow=classic;html=1;rounded=0;entryX=0;entryY=0.5;entryDx=0;entryDy=0;" edge="1" parent="1" target="_pMATCZt71jJnjRQlbl_-46">
          <mxGeometry width="50" height="50" relative="1" as="geometry">
            <mxPoint x="36.5" y="1240" as="sourcePoint" />
            <mxPoint x="316.5" y="1320" as="targetPoint" />
            <Array as="points">
              <mxPoint x="36.5" y="1320" />
            </Array>
          </mxGeometry>
        </mxCell>
        <mxCell id="_pMATCZt71jJnjRQlbl_-52" value="" style="endArrow=classic;html=1;rounded=0;entryX=0;entryY=0.5;entryDx=0;entryDy=0;" edge="1" parent="1" target="_pMATCZt71jJnjRQlbl_-43">
          <mxGeometry width="50" height="50" relative="1" as="geometry">
            <mxPoint x="36.5" y="1320" as="sourcePoint" />
            <mxPoint x="456.5" y="1400" as="targetPoint" />
            <Array as="points">
              <mxPoint x="36.5" y="1360" />
              <mxPoint x="36.5" y="1400" />
            </Array>
          </mxGeometry>
        </mxCell>
        <mxCell id="_pMATCZt71jJnjRQlbl_-53" value="" style="endArrow=classic;html=1;rounded=0;entryX=0;entryY=1;entryDx=0;entryDy=0;" edge="1" parent="1" target="_pMATCZt71jJnjRQlbl_-40">
          <mxGeometry width="50" height="50" relative="1" as="geometry">
            <mxPoint x="66.5" y="1290" as="sourcePoint" />
            <mxPoint x="276.5" y="1240" as="targetPoint" />
            <Array as="points">
              <mxPoint x="66.5" y="1190" />
            </Array>
          </mxGeometry>
        </mxCell>
        <mxCell id="_pMATCZt71jJnjRQlbl_-54" value="" style="endArrow=classic;html=1;rounded=0;entryX=0;entryY=1;entryDx=0;entryDy=0;" edge="1" parent="1">
          <mxGeometry width="50" height="50" relative="1" as="geometry">
            <mxPoint x="66.5" y="1290" as="sourcePoint" />
            <mxPoint x="326.5" y="1269" as="targetPoint" />
            <Array as="points">
              <mxPoint x="66.5" y="1269" />
            </Array>
          </mxGeometry>
        </mxCell>
        <mxCell id="_pMATCZt71jJnjRQlbl_-55" value="" style="endArrow=classic;html=1;rounded=0;entryX=0;entryY=1;entryDx=0;entryDy=0;" edge="1" parent="1" target="_pMATCZt71jJnjRQlbl_-46">
          <mxGeometry width="50" height="50" relative="1" as="geometry">
            <mxPoint x="66.5" y="1290" as="sourcePoint" />
            <mxPoint x="296.5" y="1310" as="targetPoint" />
            <Array as="points">
              <mxPoint x="66.5" y="1348" />
            </Array>
          </mxGeometry>
        </mxCell>
        <mxCell id="_pMATCZt71jJnjRQlbl_-56" value="" style="endArrow=classic;html=1;rounded=0;entryX=0;entryY=1;entryDx=0;entryDy=0;" edge="1" parent="1" target="_pMATCZt71jJnjRQlbl_-43">
          <mxGeometry width="50" height="50" relative="1" as="geometry">
            <mxPoint x="66.5" y="1350" as="sourcePoint" />
            <mxPoint x="485" y="1429" as="targetPoint" />
            <Array as="points">
              <mxPoint x="66.5" y="1428" />
            </Array>
          </mxGeometry>
        </mxCell>
        <mxCell id="_pMATCZt71jJnjRQlbl_-57" value="" style="endArrow=none;html=1;rounded=0;" edge="1" parent="1">
          <mxGeometry width="50" height="50" relative="1" as="geometry">
            <mxPoint x="-173.5" y="1310" as="sourcePoint" />
            <mxPoint x="66.5" y="1310" as="targetPoint" />
          </mxGeometry>
        </mxCell>
      </root>
    </mxGraphModel>
  </diagram>
</mxfile>
